<svg width="133" height="15" viewBox="0 0 133 15" fill="none" xmlns="http://www.w3.org/2000/svg">
<path d="M2.31997 10.2241H6.95197V12.0001H0.167969V0.43206H2.31997V10.2241Z" fill="#4F4F4F"/>
<path d="M11.5287 3.66406C12.1421 3.66406 12.6967 3.76273 13.1927 3.96006C13.6941 4.15739 14.1207 4.43739 14.4727 4.80006C14.8247 5.16273 15.0967 5.60539 15.2887 6.12806C15.4807 6.65073 15.5767 7.23473 15.5767 7.88006C15.5767 8.53073 15.4807 9.11739 15.2887 9.64006C15.0967 10.1627 14.8247 10.6081 14.4727 10.9761C14.1207 11.3441 13.6941 11.6267 13.1927 11.8241C12.6967 12.0214 12.1421 12.1201 11.5287 12.1201C10.9154 12.1201 10.3581 12.0214 9.85672 11.8241C9.35539 11.6267 8.92605 11.3441 8.56872 10.9761C8.21672 10.6081 7.94205 10.1627 7.74472 9.64006C7.55272 9.11739 7.45672 8.53073 7.45672 7.88006C7.45672 7.23473 7.55272 6.65073 7.74472 6.12806C7.94205 5.60539 8.21672 5.16273 8.56872 4.80006C8.92605 4.43739 9.35539 4.15739 9.85672 3.96006C10.3581 3.76273 10.9154 3.66406 11.5287 3.66406ZM11.5287 10.6001C12.2114 10.6001 12.7154 10.3707 13.0407 9.91206C13.3714 9.45339 13.5367 8.78139 13.5367 7.89606C13.5367 7.01073 13.3714 6.33606 13.0407 5.87206C12.7154 5.40806 12.2114 5.17606 11.5287 5.17606C10.8354 5.17606 10.3234 5.41073 9.99272 5.88006C9.66205 6.34406 9.49672 7.01606 9.49672 7.89606C9.49672 8.77606 9.66205 9.44806 9.99272 9.91206C10.3234 10.3707 10.8354 10.6001 11.5287 10.6001Z" fill="#4F4F4F"/>
<path d="M23.5505 12.0001H22.6625C22.4758 12.0001 22.3291 11.9734 22.2225 11.9201C22.1158 11.8614 22.0358 11.7467 21.9825 11.5761L21.8065 10.9921C21.5985 11.1787 21.3931 11.3441 21.1905 11.4881C20.9931 11.6267 20.7878 11.7441 20.5745 11.8401C20.3611 11.9361 20.1345 12.0081 19.8945 12.0561C19.6545 12.1041 19.3878 12.1281 19.0945 12.1281C18.7478 12.1281 18.4278 12.0827 18.1345 11.9921C17.8411 11.8961 17.5878 11.7547 17.3745 11.5681C17.1665 11.3814 17.0038 11.1494 16.8865 10.8721C16.7691 10.5947 16.7105 10.2721 16.7105 9.90406C16.7105 9.59473 16.7905 9.29073 16.9505 8.99206C17.1158 8.68806 17.3878 8.41606 17.7665 8.17606C18.1451 7.93073 18.6491 7.72806 19.2785 7.56806C19.9078 7.40806 20.6891 7.31739 21.6225 7.29606V6.81606C21.6225 6.26673 21.5051 5.86139 21.2705 5.60006C21.0411 5.33339 20.7051 5.20006 20.2625 5.20006C19.9425 5.20006 19.6758 5.23739 19.4625 5.31206C19.2491 5.38673 19.0625 5.47206 18.9025 5.56806C18.7478 5.65873 18.6038 5.74139 18.4705 5.81606C18.3371 5.89073 18.1905 5.92806 18.0305 5.92806C17.8971 5.92806 17.7825 5.89339 17.6865 5.82406C17.5905 5.75473 17.5131 5.66939 17.4545 5.56806L17.0945 4.93606C18.0385 4.07206 19.1771 3.64006 20.5105 3.64006C20.9905 3.64006 21.4171 3.72006 21.7905 3.88006C22.1691 4.03473 22.4891 4.25339 22.7505 4.53606C23.0118 4.81339 23.2091 5.14673 23.3425 5.53606C23.4811 5.92539 23.5505 6.35206 23.5505 6.81606V12.0001ZM19.7105 10.7681C19.9131 10.7681 20.0998 10.7494 20.2705 10.7121C20.4411 10.6747 20.6011 10.6187 20.7505 10.5441C20.9051 10.4694 21.0518 10.3787 21.1905 10.2721C21.3345 10.1601 21.4785 10.0294 21.6225 9.88006V8.49606C21.0465 8.52273 20.5638 8.57339 20.1745 8.64806C19.7905 8.71739 19.4811 8.80806 19.2465 8.92006C19.0118 9.03206 18.8438 9.16273 18.7425 9.31206C18.6465 9.46139 18.5985 9.62406 18.5985 9.80006C18.5985 10.1467 18.6998 10.3947 18.9025 10.5441C19.1105 10.6934 19.3798 10.7681 19.7105 10.7681Z" fill="#4F4F4F"/>
<path d="M31.2695 12.0001C31.0135 12.0001 30.8455 11.8801 30.7655 11.6401L30.6055 10.8481C30.4348 11.0401 30.2561 11.2134 30.0695 11.3681C29.8828 11.5227 29.6801 11.6561 29.4615 11.7681C29.2481 11.8801 29.0161 11.9654 28.7655 12.0241C28.5201 12.0881 28.2535 12.1201 27.9655 12.1201C27.5175 12.1201 27.1068 12.0267 26.7335 11.8401C26.3601 11.6534 26.0375 11.3841 25.7655 11.0321C25.4988 10.6747 25.2908 10.2347 25.1415 9.71206C24.9975 9.18939 24.9255 8.59206 24.9255 7.92006C24.9255 7.31206 25.0081 6.74673 25.1735 6.22406C25.3388 5.70139 25.5761 5.24806 25.8855 4.86406C26.1948 4.48006 26.5655 4.18139 26.9975 3.96806C27.4295 3.74939 27.9148 3.64006 28.4535 3.64006C28.9121 3.64006 29.3041 3.71473 29.6295 3.86406C29.9548 4.00806 30.2455 4.20273 30.5015 4.44806V0.112061H32.4775V12.0001H31.2695ZM28.6375 10.5521C29.0481 10.5521 29.3975 10.4667 29.6855 10.2961C29.9735 10.1254 30.2455 9.88273 30.5015 9.56806V5.88806C30.2775 5.61606 30.0321 5.42406 29.7655 5.31206C29.5041 5.20006 29.2215 5.14406 28.9175 5.14406C28.6188 5.14406 28.3468 5.20006 28.1015 5.31206C27.8615 5.42406 27.6561 5.59473 27.4855 5.82406C27.3201 6.04806 27.1921 6.33606 27.1015 6.68806C27.0108 7.03473 26.9655 7.44539 26.9655 7.92006C26.9655 8.40006 27.0028 8.80806 27.0775 9.14406C27.1575 9.47473 27.2695 9.74673 27.4135 9.96006C27.5575 10.1681 27.7335 10.3201 27.9415 10.4161C28.1495 10.5067 28.3815 10.5521 28.6375 10.5521Z" fill="#4F4F4F"/>
<path d="M36.7225 3.79206V12.0001H34.7465V3.79206H36.7225ZM37.0185 1.40006C37.0185 1.57073 36.9838 1.73073 36.9145 1.88006C36.8451 2.02939 36.7518 2.16006 36.6345 2.27206C36.5225 2.38406 36.3891 2.47473 36.2345 2.54406C36.0798 2.60806 35.9145 2.64006 35.7385 2.64006C35.5678 2.64006 35.4051 2.60806 35.2505 2.54406C35.1011 2.47473 34.9705 2.38406 34.8585 2.27206C34.7465 2.16006 34.6558 2.02939 34.5865 1.88006C34.5225 1.73073 34.4905 1.57073 34.4905 1.40006C34.4905 1.22406 34.5225 1.05873 34.5865 0.90406C34.6558 0.749394 34.7465 0.616061 34.8585 0.504061C34.9705 0.392061 35.1011 0.304061 35.2505 0.240061C35.4051 0.170727 35.5678 0.136061 35.7385 0.136061C35.9145 0.136061 36.0798 0.170727 36.2345 0.240061C36.3891 0.304061 36.5225 0.392061 36.6345 0.504061C36.7518 0.616061 36.8451 0.749394 36.9145 0.90406C36.9838 1.05873 37.0185 1.22406 37.0185 1.40006Z" fill="#4F4F4F"/>
<path d="M38.9622 12.0001V3.79206H40.1702C40.4262 3.79206 40.5942 3.91206 40.6742 4.15206L40.8102 4.80006C40.9756 4.62939 41.1489 4.47473 41.3302 4.33606C41.5169 4.19739 41.7116 4.07739 41.9142 3.97606C42.1222 3.87473 42.3436 3.79739 42.5782 3.74406C42.8129 3.69073 43.0689 3.66406 43.3462 3.66406C43.7942 3.66406 44.1916 3.74139 44.5382 3.89606C44.8849 4.04539 45.1729 4.25873 45.4022 4.53606C45.6369 4.80806 45.8129 5.13606 45.9302 5.52006C46.0529 5.89873 46.1142 6.31739 46.1142 6.77606V12.0001H44.1382V6.77606C44.1382 6.27473 44.0209 5.88806 43.7862 5.61606C43.5569 5.33873 43.2102 5.20006 42.7462 5.20006C42.4049 5.20006 42.0849 5.27739 41.7862 5.43206C41.4876 5.58673 41.2049 5.79739 40.9382 6.06406V12.0001H38.9622Z" fill="#4F4F4F"/>
<path d="M50.896 3.64806C51.248 3.64806 51.5786 3.68539 51.888 3.76006C52.1973 3.82939 52.48 3.93339 52.736 4.07206H55.096V4.80806C55.096 4.93073 55.064 5.02673 55 5.09606C54.936 5.16539 54.8266 5.21339 54.672 5.24006L53.936 5.37606C53.9893 5.51473 54.0293 5.66139 54.056 5.81606C54.088 5.97073 54.104 6.13339 54.104 6.30406C54.104 6.70939 54.0213 7.07739 53.856 7.40806C53.696 7.73339 53.472 8.01073 53.184 8.24006C52.9013 8.46939 52.5626 8.64806 52.168 8.77606C51.7786 8.89873 51.3546 8.96006 50.896 8.96006C50.5866 8.96006 50.2853 8.93073 49.992 8.87206C49.736 9.02673 49.608 9.20006 49.608 9.39206C49.608 9.55739 49.6826 9.68006 49.832 9.76006C49.9866 9.83473 50.1866 9.88806 50.432 9.92006C50.6826 9.95206 50.9653 9.97339 51.28 9.98406C51.5946 9.98939 51.9173 10.0054 52.248 10.0321C52.5786 10.0587 52.9013 10.1067 53.216 10.1761C53.5306 10.2401 53.8106 10.3441 54.056 10.4881C54.3066 10.6321 54.5066 10.8294 54.656 11.0801C54.8106 11.3254 54.888 11.6427 54.888 12.0321C54.888 12.3947 54.7973 12.7467 54.616 13.0881C54.44 13.4294 54.1813 13.7334 53.84 14.0001C53.504 14.2667 53.0906 14.4801 52.6 14.6401C52.1093 14.8054 51.5493 14.8881 50.92 14.8881C50.296 14.8881 49.7546 14.8267 49.296 14.7041C48.8373 14.5867 48.456 14.4267 48.152 14.2241C47.8533 14.0267 47.6293 13.7974 47.48 13.5361C47.3306 13.2747 47.256 13.0027 47.256 12.7201C47.256 12.3361 47.3733 12.0134 47.608 11.7521C47.8426 11.4907 48.168 11.2827 48.584 11.1281C48.3813 11.0161 48.2186 10.8667 48.096 10.6801C47.9733 10.4934 47.912 10.2507 47.912 9.95206C47.912 9.82939 47.9333 9.70406 47.976 9.57606C48.0186 9.44273 48.0826 9.31206 48.168 9.18406C48.2586 9.05606 48.3706 8.93606 48.504 8.82406C48.6373 8.70673 48.7946 8.60273 48.976 8.51206C48.56 8.28806 48.232 7.98939 47.992 7.61606C47.7573 7.24273 47.64 6.80539 47.64 6.30406C47.64 5.89873 47.72 5.53339 47.88 5.20806C48.0453 4.87739 48.272 4.59739 48.56 4.36806C48.8533 4.13339 49.1973 3.95473 49.592 3.83206C49.992 3.70939 50.4266 3.64806 50.896 3.64806ZM53.064 12.3681C53.064 12.2081 53.016 12.0774 52.92 11.9761C52.824 11.8747 52.6933 11.7974 52.528 11.7441C52.3626 11.6854 52.168 11.6427 51.944 11.6161C51.7253 11.5894 51.4906 11.5707 51.24 11.5601C50.9946 11.5441 50.7386 11.5307 50.472 11.5201C50.2106 11.5041 49.9573 11.4801 49.712 11.4481C49.488 11.5707 49.3066 11.7174 49.168 11.8881C49.0346 12.0534 48.968 12.2454 48.968 12.4641C48.968 12.6081 49.0026 12.7414 49.072 12.8641C49.1466 12.9921 49.2613 13.1014 49.416 13.1921C49.576 13.2827 49.7813 13.3521 50.032 13.4001C50.2826 13.4534 50.5893 13.4801 50.952 13.4801C51.32 13.4801 51.6373 13.4507 51.904 13.3921C52.1706 13.3387 52.3893 13.2614 52.56 13.1601C52.736 13.0641 52.864 12.9467 52.944 12.8081C53.024 12.6747 53.064 12.5281 53.064 12.3681ZM50.896 7.69606C51.1413 7.69606 51.3546 7.66406 51.536 7.60006C51.7173 7.53073 51.8666 7.43739 51.984 7.32006C52.1066 7.20273 52.1973 7.06139 52.256 6.89606C52.32 6.73073 52.352 6.54939 52.352 6.35206C52.352 5.94673 52.2293 5.62673 51.984 5.39206C51.744 5.15206 51.3813 5.03206 50.896 5.03206C50.4106 5.03206 50.0453 5.15206 49.8 5.39206C49.56 5.62673 49.44 5.94673 49.44 6.35206C49.44 6.54406 49.4693 6.72273 49.528 6.88806C49.592 7.05339 49.6826 7.19739 49.8 7.32006C49.9226 7.43739 50.0746 7.53073 50.256 7.60006C50.4426 7.66406 50.656 7.69606 50.896 7.69606Z" fill="#4F4F4F"/>
<path d="M67.695 0.43206V2.20006H64.215V12.0001H62.063V2.20006H58.567V0.43206H67.695Z" fill="#4F4F4F"/>
<path d="M73.4255 12.0001H72.5375C72.3508 12.0001 72.2041 11.9734 72.0975 11.9201C71.9908 11.8614 71.9108 11.7467 71.8575 11.5761L71.6815 10.9921C71.4735 11.1787 71.2681 11.3441 71.0655 11.4881C70.8681 11.6267 70.6628 11.7441 70.4495 11.8401C70.2361 11.9361 70.0095 12.0081 69.7695 12.0561C69.5295 12.1041 69.2628 12.1281 68.9695 12.1281C68.6228 12.1281 68.3028 12.0827 68.0095 11.9921C67.7161 11.8961 67.4628 11.7547 67.2495 11.5681C67.0415 11.3814 66.8788 11.1494 66.7615 10.8721C66.6441 10.5947 66.5855 10.2721 66.5855 9.90406C66.5855 9.59473 66.6655 9.29073 66.8255 8.99206C66.9908 8.68806 67.2628 8.41606 67.6415 8.17606C68.0201 7.93073 68.5241 7.72806 69.1535 7.56806C69.7828 7.40806 70.5641 7.31739 71.4975 7.29606V6.81606C71.4975 6.26673 71.3801 5.86139 71.1455 5.60006C70.9161 5.33339 70.5801 5.20006 70.1375 5.20006C69.8175 5.20006 69.5508 5.23739 69.3375 5.31206C69.1241 5.38673 68.9375 5.47206 68.7775 5.56806C68.6228 5.65873 68.4788 5.74139 68.3455 5.81606C68.2121 5.89073 68.0655 5.92806 67.9055 5.92806C67.7721 5.92806 67.6575 5.89339 67.5615 5.82406C67.4655 5.75473 67.3881 5.66939 67.3295 5.56806L66.9695 4.93606C67.9135 4.07206 69.0521 3.64006 70.3855 3.64006C70.8655 3.64006 71.2921 3.72006 71.6655 3.88006C72.0441 4.03473 72.3641 4.25339 72.6255 4.53606C72.8868 4.81339 73.0841 5.14673 73.2175 5.53606C73.3561 5.92539 73.4255 6.35206 73.4255 6.81606V12.0001ZM69.5855 10.7681C69.7881 10.7681 69.9748 10.7494 70.1455 10.7121C70.3161 10.6747 70.4761 10.6187 70.6255 10.5441C70.7801 10.4694 70.9268 10.3787 71.0655 10.2721C71.2095 10.1601 71.3535 10.0294 71.4975 9.88006V8.49606C70.9215 8.52273 70.4388 8.57339 70.0495 8.64806C69.6655 8.71739 69.3561 8.80806 69.1215 8.92006C68.8868 9.03206 68.7188 9.16273 68.6175 9.31206C68.5215 9.46139 68.4735 9.62406 68.4735 9.80006C68.4735 10.1467 68.5748 10.3947 68.7775 10.5441C68.9855 10.6934 69.2548 10.7681 69.5855 10.7681Z" fill="#4F4F4F"/>
<path d="M80.2405 5.39206C80.1871 5.47739 80.1311 5.53873 80.0725 5.57606C80.0138 5.60806 79.9391 5.62406 79.8485 5.62406C79.7525 5.62406 79.6485 5.59739 79.5365 5.54406C79.4298 5.49073 79.3045 5.43206 79.1605 5.36806C79.0165 5.29873 78.8511 5.23739 78.6645 5.18406C78.4831 5.13073 78.2671 5.10406 78.0165 5.10406C77.6271 5.10406 77.3205 5.18673 77.0965 5.35206C76.8725 5.51739 76.7605 5.73339 76.7605 6.00006C76.7605 6.17606 76.8165 6.32539 76.9285 6.44806C77.0458 6.56539 77.1978 6.66939 77.3845 6.76006C77.5765 6.85073 77.7925 6.93339 78.0325 7.00806C78.2725 7.07739 78.5178 7.15473 78.7685 7.24006C79.0191 7.32539 79.2645 7.42406 79.5045 7.53606C79.7445 7.64273 79.9578 7.78139 80.1445 7.95206C80.3365 8.11739 80.4885 8.31739 80.6005 8.55206C80.7178 8.78673 80.7765 9.06939 80.7765 9.40006C80.7765 9.79473 80.7045 10.1601 80.5605 10.4961C80.4165 10.8267 80.2058 11.1147 79.9285 11.3601C79.6511 11.6001 79.3071 11.7894 78.8965 11.9281C78.4911 12.0614 78.0245 12.1281 77.4965 12.1281C77.2138 12.1281 76.9365 12.1014 76.6645 12.0481C76.3978 12.0001 76.1391 11.9307 75.8885 11.8401C75.6431 11.7494 75.4138 11.6427 75.2005 11.5201C74.9925 11.3974 74.8085 11.2641 74.6485 11.1201L75.1045 10.3681C75.1631 10.2774 75.2325 10.2081 75.3125 10.1601C75.3925 10.1121 75.4938 10.0881 75.6165 10.0881C75.7391 10.0881 75.8538 10.1227 75.9605 10.1921C76.0725 10.2614 76.2005 10.3361 76.3445 10.4161C76.4885 10.4961 76.6565 10.5707 76.8485 10.6401C77.0458 10.7094 77.2938 10.7441 77.5925 10.7441C77.8271 10.7441 78.0271 10.7174 78.1925 10.6641C78.3631 10.6054 78.5018 10.5307 78.6085 10.4401C78.7205 10.3494 78.8005 10.2454 78.8485 10.1281C78.9018 10.0054 78.9285 9.88006 78.9285 9.75206C78.9285 9.56006 78.8698 9.40273 78.7525 9.28006C78.6405 9.15739 78.4885 9.05073 78.2965 8.96006C78.1098 8.86939 77.8938 8.78939 77.6485 8.72006C77.4085 8.64539 77.1605 8.56539 76.9045 8.48006C76.6538 8.39473 76.4058 8.29606 76.1605 8.18406C75.9205 8.06673 75.7045 7.92006 75.5125 7.74406C75.3258 7.56806 75.1738 7.35206 75.0565 7.09606C74.9445 6.84006 74.8885 6.53073 74.8885 6.16806C74.8885 5.83206 74.9551 5.51206 75.0885 5.20806C75.2218 4.90406 75.4165 4.64006 75.6725 4.41606C75.9338 4.18673 76.2565 4.00539 76.6405 3.87206C77.0298 3.73339 77.4778 3.66406 77.9845 3.66406C78.5498 3.66406 79.0645 3.75739 79.5285 3.94406C79.9925 4.13073 80.3791 4.37606 80.6885 4.68006L80.2405 5.39206Z" fill="#4F4F4F"/>
<path d="M84.3528 0.112061V6.92006H84.7208C84.8542 6.92006 84.9582 6.90139 85.0328 6.86406C85.1075 6.82673 85.1875 6.75739 85.2728 6.65606L87.3128 4.13606C87.4035 4.02939 87.4995 3.94673 87.6008 3.88806C87.7022 3.82406 87.8355 3.79206 88.0008 3.79206H89.8088L87.2568 6.84006C87.1662 6.95206 87.0728 7.05606 86.9768 7.15206C86.8808 7.24273 86.7768 7.32273 86.6648 7.39206C86.7768 7.47206 86.8755 7.56539 86.9608 7.67206C87.0462 7.77873 87.1315 7.89339 87.2168 8.01606L89.9528 12.0001H88.1688C88.0142 12.0001 87.8835 11.9734 87.7768 11.9201C87.6702 11.8667 87.5742 11.7761 87.4888 11.6481L85.4008 8.53606C85.3208 8.41339 85.2408 8.33339 85.1608 8.29606C85.0808 8.25873 84.9608 8.24006 84.8008 8.24006H84.3528V12.0001H82.3768V0.112061H84.3528Z" fill="#4F4F4F"/>
<path d="M96.5387 10.2241H101.171V12.0001H94.3867V0.43206H96.5387V10.2241Z" fill="#4F4F4F"/>
<path d="M104.644 3.79206V12.0001H102.668V3.79206H104.644ZM104.94 1.40006C104.94 1.57073 104.906 1.73073 104.836 1.88006C104.767 2.02939 104.674 2.16006 104.556 2.27206C104.444 2.38406 104.311 2.47473 104.156 2.54406C104.002 2.60806 103.836 2.64006 103.66 2.64006C103.49 2.64006 103.327 2.60806 103.172 2.54406C103.023 2.47473 102.892 2.38406 102.78 2.27206C102.668 2.16006 102.578 2.02939 102.508 1.88006C102.444 1.73073 102.412 1.57073 102.412 1.40006C102.412 1.22406 102.444 1.05873 102.508 0.90406C102.578 0.749394 102.668 0.616061 102.78 0.504061C102.892 0.392061 103.023 0.304061 103.172 0.240061C103.327 0.170727 103.49 0.136061 103.66 0.136061C103.836 0.136061 104.002 0.170727 104.156 0.240061C104.311 0.304061 104.444 0.392061 104.556 0.504061C104.674 0.616061 104.767 0.749394 104.836 0.90406C104.906 1.05873 104.94 1.22406 104.94 1.40006Z" fill="#4F4F4F"/>
<path d="M111.756 5.39206C111.703 5.47739 111.647 5.53873 111.588 5.57606C111.529 5.60806 111.455 5.62406 111.364 5.62406C111.268 5.62406 111.164 5.59739 111.052 5.54406C110.945 5.49073 110.82 5.43206 110.676 5.36806C110.532 5.29873 110.367 5.23739 110.18 5.18406C109.999 5.13073 109.783 5.10406 109.532 5.10406C109.143 5.10406 108.836 5.18673 108.612 5.35206C108.388 5.51739 108.276 5.73339 108.276 6.00006C108.276 6.17606 108.332 6.32539 108.444 6.44806C108.561 6.56539 108.713 6.66939 108.9 6.76006C109.092 6.85073 109.308 6.93339 109.548 7.00806C109.788 7.07739 110.033 7.15473 110.284 7.24006C110.535 7.32539 110.78 7.42406 111.02 7.53606C111.26 7.64273 111.473 7.78139 111.66 7.95206C111.852 8.11739 112.004 8.31739 112.116 8.55206C112.233 8.78673 112.292 9.06939 112.292 9.40006C112.292 9.79473 112.22 10.1601 112.076 10.4961C111.932 10.8267 111.721 11.1147 111.444 11.3601C111.167 11.6001 110.823 11.7894 110.412 11.9281C110.007 12.0614 109.54 12.1281 109.012 12.1281C108.729 12.1281 108.452 12.1014 108.18 12.0481C107.913 12.0001 107.655 11.9307 107.404 11.8401C107.159 11.7494 106.929 11.6427 106.716 11.5201C106.508 11.3974 106.324 11.2641 106.164 11.1201L106.62 10.3681C106.679 10.2774 106.748 10.2081 106.828 10.1601C106.908 10.1121 107.009 10.0881 107.132 10.0881C107.255 10.0881 107.369 10.1227 107.476 10.1921C107.588 10.2614 107.716 10.3361 107.86 10.4161C108.004 10.4961 108.172 10.5707 108.364 10.6401C108.561 10.7094 108.809 10.7441 109.108 10.7441C109.343 10.7441 109.543 10.7174 109.708 10.6641C109.879 10.6054 110.017 10.5307 110.124 10.4401C110.236 10.3494 110.316 10.2454 110.364 10.1281C110.417 10.0054 110.444 9.88006 110.444 9.75206C110.444 9.56006 110.385 9.40273 110.268 9.28006C110.156 9.15739 110.004 9.05073 109.812 8.96006C109.625 8.86939 109.409 8.78939 109.164 8.72006C108.924 8.64539 108.676 8.56539 108.42 8.48006C108.169 8.39473 107.921 8.29606 107.676 8.18406C107.436 8.06673 107.22 7.92006 107.028 7.74406C106.841 7.56806 106.689 7.35206 106.572 7.09606C106.46 6.84006 106.404 6.53073 106.404 6.16806C106.404 5.83206 106.471 5.51206 106.604 5.20806C106.737 4.90406 106.932 4.64006 107.188 4.41606C107.449 4.18673 107.772 4.00539 108.156 3.87206C108.545 3.73339 108.993 3.66406 109.5 3.66406C110.065 3.66406 110.58 3.75739 111.044 3.94406C111.508 4.13073 111.895 4.37606 112.204 4.68006L111.756 5.39206Z" fill="#4F4F4F"/>
<path d="M116.564 12.1281C115.855 12.1281 115.308 11.9281 114.924 11.5281C114.54 11.1227 114.348 10.5654 114.348 9.85606V5.27206H113.516C113.41 5.27206 113.316 5.23739 113.236 5.16806C113.162 5.09873 113.124 4.99473 113.124 4.85606V4.07206L114.444 3.85606L114.86 1.61606C114.882 1.50939 114.93 1.42673 115.004 1.36806C115.084 1.30939 115.183 1.28006 115.3 1.28006H116.324V3.86406H118.484V5.27206H116.324V9.72006C116.324 9.97606 116.388 10.1761 116.516 10.3201C116.644 10.4641 116.815 10.5361 117.028 10.5361C117.151 10.5361 117.252 10.5227 117.332 10.4961C117.418 10.4641 117.49 10.4321 117.548 10.4001C117.612 10.3681 117.668 10.3387 117.716 10.3121C117.764 10.2801 117.812 10.2641 117.86 10.2641C117.919 10.2641 117.967 10.2801 118.004 10.3121C118.042 10.3387 118.082 10.3814 118.124 10.4401L118.716 11.4001C118.428 11.6401 118.098 11.8214 117.724 11.9441C117.351 12.0667 116.964 12.1281 116.564 12.1281Z" fill="#4F4F4F"/>
<path d="M122.678 10.9121C122.678 10.7467 122.707 10.5894 122.766 10.4401C122.83 10.2907 122.915 10.1627 123.022 10.0561C123.134 9.94939 123.264 9.86406 123.414 9.80006C123.563 9.73606 123.723 9.70406 123.894 9.70406C124.059 9.70406 124.216 9.73606 124.366 9.80006C124.515 9.86406 124.643 9.94939 124.75 10.0561C124.856 10.1627 124.942 10.2907 125.006 10.4401C125.07 10.5894 125.102 10.7467 125.102 10.9121C125.102 11.0827 125.07 11.2427 125.006 11.3921C124.942 11.5361 124.856 11.6614 124.75 11.7681C124.643 11.8747 124.515 11.9574 124.366 12.0161C124.216 12.0801 124.059 12.1121 123.894 12.1121C123.723 12.1121 123.563 12.0801 123.414 12.0161C123.264 11.9574 123.134 11.8747 123.022 11.7681C122.915 11.6614 122.83 11.5361 122.766 11.3921C122.707 11.2427 122.678 11.0827 122.678 10.9121Z" fill="#4F4F4F"/>
<path d="M126.271 10.9121C126.271 10.7467 126.301 10.5894 126.359 10.4401C126.423 10.2907 126.509 10.1627 126.615 10.0561C126.727 9.94939 126.858 9.86406 127.007 9.80006C127.157 9.73606 127.317 9.70406 127.487 9.70406C127.653 9.70406 127.81 9.73606 127.959 9.80006C128.109 9.86406 128.237 9.94939 128.343 10.0561C128.45 10.1627 128.535 10.2907 128.599 10.4401C128.663 10.5894 128.695 10.7467 128.695 10.9121C128.695 11.0827 128.663 11.2427 128.599 11.3921C128.535 11.5361 128.45 11.6614 128.343 11.7681C128.237 11.8747 128.109 11.9574 127.959 12.0161C127.81 12.0801 127.653 12.1121 127.487 12.1121C127.317 12.1121 127.157 12.0801 127.007 12.0161C126.858 11.9574 126.727 11.8747 126.615 11.7681C126.509 11.6614 126.423 11.5361 126.359 11.3921C126.301 11.2427 126.271 11.0827 126.271 10.9121Z" fill="#4F4F4F"/>
<path d="M129.865 10.9121C129.865 10.7467 129.895 10.5894 129.953 10.4401C130.017 10.2907 130.103 10.1627 130.209 10.0561C130.321 9.94939 130.452 9.86406 130.601 9.80006C130.751 9.73606 130.911 9.70406 131.081 9.70406C131.247 9.70406 131.404 9.73606 131.553 9.80006C131.703 9.86406 131.831 9.94939 131.937 10.0561C132.044 10.1627 132.129 10.2907 132.193 10.4401C132.257 10.5894 132.289 10.7467 132.289 10.9121C132.289 11.0827 132.257 11.2427 132.193 11.3921C132.129 11.5361 132.044 11.6614 131.937 11.7681C131.831 11.8747 131.703 11.9574 131.553 12.0161C131.404 12.0801 131.247 12.1121 131.081 12.1121C130.911 12.1121 130.751 12.0801 130.601 12.0161C130.452 11.9574 130.321 11.8747 130.209 11.7681C130.103 11.6614 130.017 11.5361 129.953 11.3921C129.895 11.2427 129.865 11.0827 129.865 10.9121Z" fill="#4F4F4F"/>
</svg>
