<svg width="114" height="15" viewBox="0 0 114 15" fill="none" xmlns="http://www.w3.org/2000/svg">
<path d="M2.31997 10.224H6.95197V12H0.167969V0.431999H2.31997V10.224Z" fill="#4F4F4F"/>
<path d="M11.5287 3.664C12.1421 3.664 12.6967 3.76267 13.1927 3.96C13.6941 4.15733 14.1207 4.43733 14.4727 4.8C14.8247 5.16267 15.0967 5.60533 15.2887 6.128C15.4807 6.65067 15.5767 7.23467 15.5767 7.88C15.5767 8.53067 15.4807 9.11733 15.2887 9.64C15.0967 10.1627 14.8247 10.608 14.4727 10.976C14.1207 11.344 13.6941 11.6267 13.1927 11.824C12.6967 12.0213 12.1421 12.12 11.5287 12.12C10.9154 12.12 10.3581 12.0213 9.85672 11.824C9.35539 11.6267 8.92605 11.344 8.56872 10.976C8.21672 10.608 7.94205 10.1627 7.74472 9.64C7.55272 9.11733 7.45672 8.53067 7.45672 7.88C7.45672 7.23467 7.55272 6.65067 7.74472 6.128C7.94205 5.60533 8.21672 5.16267 8.56872 4.8C8.92605 4.43733 9.35539 4.15733 9.85672 3.96C10.3581 3.76267 10.9154 3.664 11.5287 3.664ZM11.5287 10.6C12.2114 10.6 12.7154 10.3707 13.0407 9.912C13.3714 9.45333 13.5367 8.78133 13.5367 7.896C13.5367 7.01067 13.3714 6.336 13.0407 5.872C12.7154 5.408 12.2114 5.176 11.5287 5.176C10.8354 5.176 10.3234 5.41067 9.99272 5.88C9.66205 6.344 9.49672 7.016 9.49672 7.896C9.49672 8.776 9.66205 9.448 9.99272 9.912C10.3234 10.3707 10.8354 10.6 11.5287 10.6Z" fill="#4F4F4F"/>
<path d="M23.5505 12H22.6625C22.4758 12 22.3291 11.9733 22.2225 11.92C22.1158 11.8613 22.0358 11.7467 21.9825 11.576L21.8065 10.992C21.5985 11.1787 21.3931 11.344 21.1905 11.488C20.9931 11.6267 20.7878 11.744 20.5745 11.84C20.3611 11.936 20.1345 12.008 19.8945 12.056C19.6545 12.104 19.3878 12.128 19.0945 12.128C18.7478 12.128 18.4278 12.0827 18.1345 11.992C17.8411 11.896 17.5878 11.7547 17.3745 11.568C17.1665 11.3813 17.0038 11.1493 16.8865 10.872C16.7691 10.5947 16.7105 10.272 16.7105 9.904C16.7105 9.59467 16.7905 9.29067 16.9505 8.992C17.1158 8.688 17.3878 8.416 17.7665 8.176C18.1451 7.93067 18.6491 7.728 19.2785 7.568C19.9078 7.408 20.6891 7.31733 21.6225 7.296V6.816C21.6225 6.26667 21.5051 5.86133 21.2705 5.6C21.0411 5.33333 20.7051 5.2 20.2625 5.2C19.9425 5.2 19.6758 5.23733 19.4625 5.312C19.2491 5.38667 19.0625 5.472 18.9025 5.568C18.7478 5.65867 18.6038 5.74133 18.4705 5.816C18.3371 5.89067 18.1905 5.928 18.0305 5.928C17.8971 5.928 17.7825 5.89333 17.6865 5.824C17.5905 5.75467 17.5131 5.66933 17.4545 5.568L17.0945 4.936C18.0385 4.072 19.1771 3.64 20.5105 3.64C20.9905 3.64 21.4171 3.72 21.7905 3.88C22.1691 4.03467 22.4891 4.25333 22.7505 4.536C23.0118 4.81333 23.2091 5.14667 23.3425 5.536C23.4811 5.92533 23.5505 6.352 23.5505 6.816V12ZM19.7105 10.768C19.9131 10.768 20.0998 10.7493 20.2705 10.712C20.4411 10.6747 20.6011 10.6187 20.7505 10.544C20.9051 10.4693 21.0518 10.3787 21.1905 10.272C21.3345 10.16 21.4785 10.0293 21.6225 9.88V8.496C21.0465 8.52267 20.5638 8.57333 20.1745 8.648C19.7905 8.71733 19.4811 8.808 19.2465 8.92C19.0118 9.032 18.8438 9.16267 18.7425 9.312C18.6465 9.46133 18.5985 9.624 18.5985 9.8C18.5985 10.1467 18.6998 10.3947 18.9025 10.544C19.1105 10.6933 19.3798 10.768 19.7105 10.768Z" fill="#4F4F4F"/>
<path d="M31.2695 12C31.0135 12 30.8455 11.88 30.7655 11.64L30.6055 10.848C30.4348 11.04 30.2561 11.2133 30.0695 11.368C29.8828 11.5227 29.6801 11.656 29.4615 11.768C29.2481 11.88 29.0161 11.9653 28.7655 12.024C28.5201 12.088 28.2535 12.12 27.9655 12.12C27.5175 12.12 27.1068 12.0267 26.7335 11.84C26.3601 11.6533 26.0375 11.384 25.7655 11.032C25.4988 10.6747 25.2908 10.2347 25.1415 9.712C24.9975 9.18933 24.9255 8.592 24.9255 7.92C24.9255 7.312 25.0081 6.74667 25.1735 6.224C25.3388 5.70133 25.5761 5.248 25.8855 4.864C26.1948 4.48 26.5655 4.18133 26.9975 3.968C27.4295 3.74933 27.9148 3.64 28.4535 3.64C28.9121 3.64 29.3041 3.71467 29.6295 3.864C29.9548 4.008 30.2455 4.20267 30.5015 4.448V0.112H32.4775V12H31.2695ZM28.6375 10.552C29.0481 10.552 29.3975 10.4667 29.6855 10.296C29.9735 10.1253 30.2455 9.88267 30.5015 9.568V5.888C30.2775 5.616 30.0321 5.424 29.7655 5.312C29.5041 5.2 29.2215 5.144 28.9175 5.144C28.6188 5.144 28.3468 5.2 28.1015 5.312C27.8615 5.424 27.6561 5.59467 27.4855 5.824C27.3201 6.048 27.1921 6.336 27.1015 6.688C27.0108 7.03467 26.9655 7.44533 26.9655 7.92C26.9655 8.4 27.0028 8.808 27.0775 9.144C27.1575 9.47467 27.2695 9.74667 27.4135 9.96C27.5575 10.168 27.7335 10.32 27.9415 10.416C28.1495 10.5067 28.3815 10.552 28.6375 10.552Z" fill="#4F4F4F"/>
<path d="M36.7225 3.792V12H34.7465V3.792H36.7225ZM37.0185 1.4C37.0185 1.57067 36.9838 1.73067 36.9145 1.88C36.8451 2.02933 36.7518 2.16 36.6345 2.272C36.5225 2.384 36.3891 2.47467 36.2345 2.544C36.0798 2.608 35.9145 2.64 35.7385 2.64C35.5678 2.64 35.4051 2.608 35.2505 2.544C35.1011 2.47467 34.9705 2.384 34.8585 2.272C34.7465 2.16 34.6558 2.02933 34.5865 1.88C34.5225 1.73067 34.4905 1.57067 34.4905 1.4C34.4905 1.224 34.5225 1.05867 34.5865 0.903999C34.6558 0.749333 34.7465 0.616 34.8585 0.504C34.9705 0.392 35.1011 0.304 35.2505 0.24C35.4051 0.170666 35.5678 0.136 35.7385 0.136C35.9145 0.136 36.0798 0.170666 36.2345 0.24C36.3891 0.304 36.5225 0.392 36.6345 0.504C36.7518 0.616 36.8451 0.749333 36.9145 0.903999C36.9838 1.05867 37.0185 1.224 37.0185 1.4Z" fill="#4F4F4F"/>
<path d="M38.9622 12V3.792H40.1702C40.4262 3.792 40.5942 3.912 40.6742 4.152L40.8102 4.8C40.9756 4.62933 41.1489 4.47467 41.3302 4.336C41.5169 4.19733 41.7116 4.07733 41.9142 3.976C42.1222 3.87467 42.3436 3.79733 42.5782 3.744C42.8129 3.69067 43.0689 3.664 43.3462 3.664C43.7942 3.664 44.1916 3.74133 44.5382 3.896C44.8849 4.04533 45.1729 4.25867 45.4022 4.536C45.6369 4.808 45.8129 5.136 45.9302 5.52C46.0529 5.89867 46.1142 6.31733 46.1142 6.776V12H44.1382V6.776C44.1382 6.27467 44.0209 5.888 43.7862 5.616C43.5569 5.33867 43.2102 5.2 42.7462 5.2C42.4049 5.2 42.0849 5.27733 41.7862 5.432C41.4876 5.58667 41.2049 5.79733 40.9382 6.064V12H38.9622Z" fill="#4F4F4F"/>
<path d="M50.896 3.648C51.248 3.648 51.5786 3.68533 51.888 3.76C52.1973 3.82933 52.48 3.93333 52.736 4.072H55.096V4.808C55.096 4.93067 55.064 5.02667 55 5.096C54.936 5.16533 54.8266 5.21333 54.672 5.24L53.936 5.376C53.9893 5.51467 54.0293 5.66133 54.056 5.816C54.088 5.97067 54.104 6.13333 54.104 6.304C54.104 6.70933 54.0213 7.07733 53.856 7.408C53.696 7.73333 53.472 8.01067 53.184 8.24C52.9013 8.46933 52.5626 8.648 52.168 8.776C51.7786 8.89867 51.3546 8.96 50.896 8.96C50.5866 8.96 50.2853 8.93067 49.992 8.872C49.736 9.02667 49.608 9.2 49.608 9.392C49.608 9.55733 49.6826 9.68 49.832 9.76C49.9866 9.83467 50.1866 9.888 50.432 9.92C50.6826 9.952 50.9653 9.97333 51.28 9.984C51.5946 9.98933 51.9173 10.0053 52.248 10.032C52.5786 10.0587 52.9013 10.1067 53.216 10.176C53.5306 10.24 53.8106 10.344 54.056 10.488C54.3066 10.632 54.5066 10.8293 54.656 11.08C54.8106 11.3253 54.888 11.6427 54.888 12.032C54.888 12.3947 54.7973 12.7467 54.616 13.088C54.44 13.4293 54.1813 13.7333 53.84 14C53.504 14.2667 53.0906 14.48 52.6 14.64C52.1093 14.8053 51.5493 14.888 50.92 14.888C50.296 14.888 49.7546 14.8267 49.296 14.704C48.8373 14.5867 48.456 14.4267 48.152 14.224C47.8533 14.0267 47.6293 13.7973 47.48 13.536C47.3306 13.2747 47.256 13.0027 47.256 12.72C47.256 12.336 47.3733 12.0133 47.608 11.752C47.8426 11.4907 48.168 11.2827 48.584 11.128C48.3813 11.016 48.2186 10.8667 48.096 10.68C47.9733 10.4933 47.912 10.2507 47.912 9.952C47.912 9.82933 47.9333 9.704 47.976 9.576C48.0186 9.44267 48.0826 9.312 48.168 9.184C48.2586 9.056 48.3706 8.936 48.504 8.824C48.6373 8.70667 48.7946 8.60267 48.976 8.512C48.56 8.288 48.232 7.98933 47.992 7.616C47.7573 7.24267 47.64 6.80533 47.64 6.304C47.64 5.89867 47.72 5.53333 47.88 5.208C48.0453 4.87733 48.272 4.59733 48.56 4.368C48.8533 4.13333 49.1973 3.95467 49.592 3.832C49.992 3.70933 50.4266 3.648 50.896 3.648ZM53.064 12.368C53.064 12.208 53.016 12.0773 52.92 11.976C52.824 11.8747 52.6933 11.7973 52.528 11.744C52.3626 11.6853 52.168 11.6427 51.944 11.616C51.7253 11.5893 51.4906 11.5707 51.24 11.56C50.9946 11.544 50.7386 11.5307 50.472 11.52C50.2106 11.504 49.9573 11.48 49.712 11.448C49.488 11.5707 49.3066 11.7173 49.168 11.888C49.0346 12.0533 48.968 12.2453 48.968 12.464C48.968 12.608 49.0026 12.7413 49.072 12.864C49.1466 12.992 49.2613 13.1013 49.416 13.192C49.576 13.2827 49.7813 13.352 50.032 13.4C50.2826 13.4533 50.5893 13.48 50.952 13.48C51.32 13.48 51.6373 13.4507 51.904 13.392C52.1706 13.3387 52.3893 13.2613 52.56 13.16C52.736 13.064 52.864 12.9467 52.944 12.808C53.024 12.6747 53.064 12.528 53.064 12.368ZM50.896 7.696C51.1413 7.696 51.3546 7.664 51.536 7.6C51.7173 7.53067 51.8666 7.43733 51.984 7.32C52.1066 7.20267 52.1973 7.06133 52.256 6.896C52.32 6.73067 52.352 6.54933 52.352 6.352C52.352 5.94667 52.2293 5.62667 51.984 5.392C51.744 5.152 51.3813 5.032 50.896 5.032C50.4106 5.032 50.0453 5.152 49.8 5.392C49.56 5.62667 49.44 5.94667 49.44 6.352C49.44 6.544 49.4693 6.72267 49.528 6.888C49.592 7.05333 49.6826 7.19733 49.8 7.32C49.9226 7.43733 50.0746 7.53067 50.256 7.6C50.4426 7.664 50.656 7.696 50.896 7.696Z" fill="#4F4F4F"/>
<path d="M67.495 9.272C67.6123 9.272 67.7136 9.31733 67.799 9.408L68.647 10.328C68.1776 10.9093 67.599 11.3547 66.911 11.664C66.2283 11.9733 65.407 12.128 64.447 12.128C63.5883 12.128 62.815 11.9813 62.127 11.688C61.4443 11.3947 60.8603 10.9867 60.375 10.464C59.8896 9.94133 59.5163 9.31733 59.255 8.592C58.999 7.86667 58.871 7.07467 58.871 6.216C58.871 5.34667 59.015 4.552 59.303 3.832C59.591 3.10667 59.9963 2.48267 60.519 1.96C61.0416 1.43733 61.6656 1.032 62.391 0.743999C63.1216 0.450666 63.927 0.304 64.807 0.304C65.6656 0.304 66.415 0.442666 67.055 0.719999C67.7003 0.991999 68.2523 1.35467 68.711 1.808L67.991 2.808C67.9483 2.872 67.8923 2.928 67.823 2.976C67.759 3.024 67.6683 3.048 67.551 3.048C67.4283 3.048 67.303 3 67.175 2.904C67.047 2.808 66.8843 2.704 66.687 2.592C66.4896 2.48 66.239 2.376 65.935 2.28C65.6363 2.184 65.255 2.136 64.791 2.136C64.247 2.136 63.7456 2.232 63.287 2.424C62.8336 2.61067 62.4416 2.88 62.111 3.232C61.7856 3.584 61.5296 4.01333 61.343 4.52C61.1616 5.02133 61.071 5.58667 61.071 6.216C61.071 6.86667 61.1616 7.44533 61.343 7.952C61.5296 8.45867 61.7803 8.88533 62.095 9.232C62.4096 9.57867 62.7803 9.84533 63.207 10.032C63.6336 10.2133 64.0923 10.304 64.583 10.304C64.8763 10.304 65.1403 10.288 65.375 10.256C65.615 10.224 65.8336 10.1733 66.031 10.104C66.2336 10.0347 66.423 9.94667 66.599 9.84C66.7803 9.728 66.959 9.592 67.135 9.432C67.1883 9.384 67.2443 9.34667 67.303 9.32C67.3616 9.288 67.4256 9.272 67.495 9.272Z" fill="#4F4F4F"/>
<path d="M70.1653 12V0.112H72.1413V4.68C72.4613 4.376 72.8133 4.13067 73.1973 3.944C73.5813 3.75733 74.032 3.664 74.5493 3.664C74.9973 3.664 75.3947 3.74133 75.7413 3.896C76.088 4.04533 76.376 4.25867 76.6053 4.536C76.84 4.808 77.016 5.136 77.1333 5.52C77.256 5.89867 77.3173 6.31733 77.3173 6.776V12H75.3413V6.776C75.3413 6.27467 75.224 5.888 74.9893 5.616C74.76 5.33867 74.4133 5.2 73.9493 5.2C73.608 5.2 73.288 5.27733 72.9893 5.432C72.6907 5.58667 72.408 5.79733 72.1413 6.064V12H70.1653Z" fill="#4F4F4F"/>
<path d="M85.6911 12H84.8031C84.6164 12 84.4698 11.9733 84.3631 11.92C84.2564 11.8613 84.1764 11.7467 84.1231 11.576L83.9471 10.992C83.7391 11.1787 83.5338 11.344 83.3311 11.488C83.1338 11.6267 82.9284 11.744 82.7151 11.84C82.5018 11.936 82.2751 12.008 82.0351 12.056C81.7951 12.104 81.5284 12.128 81.2351 12.128C80.8884 12.128 80.5684 12.0827 80.2751 11.992C79.9818 11.896 79.7284 11.7547 79.5151 11.568C79.3071 11.3813 79.1444 11.1493 79.0271 10.872C78.9098 10.5947 78.8511 10.272 78.8511 9.904C78.8511 9.59467 78.9311 9.29067 79.0911 8.992C79.2564 8.688 79.5284 8.416 79.9071 8.176C80.2858 7.93067 80.7898 7.728 81.4191 7.568C82.0484 7.408 82.8298 7.31733 83.7631 7.296V6.816C83.7631 6.26667 83.6458 5.86133 83.4111 5.6C83.1818 5.33333 82.8458 5.2 82.4031 5.2C82.0831 5.2 81.8164 5.23733 81.6031 5.312C81.3898 5.38667 81.2031 5.472 81.0431 5.568C80.8884 5.65867 80.7444 5.74133 80.6111 5.816C80.4778 5.89067 80.3311 5.928 80.1711 5.928C80.0378 5.928 79.9231 5.89333 79.8271 5.824C79.7311 5.75467 79.6538 5.66933 79.5951 5.568L79.2351 4.936C80.1791 4.072 81.3178 3.64 82.6511 3.64C83.1311 3.64 83.5578 3.72 83.9311 3.88C84.3098 4.03467 84.6298 4.25333 84.8911 4.536C85.1524 4.81333 85.3498 5.14667 85.4831 5.536C85.6218 5.92533 85.6911 6.352 85.6911 6.816V12ZM81.8511 10.768C82.0538 10.768 82.2404 10.7493 82.4111 10.712C82.5818 10.6747 82.7418 10.6187 82.8911 10.544C83.0458 10.4693 83.1924 10.3787 83.3311 10.272C83.4751 10.16 83.6191 10.0293 83.7631 9.88V8.496C83.1871 8.52267 82.7044 8.57333 82.3151 8.648C81.9311 8.71733 81.6218 8.808 81.3871 8.92C81.1524 9.032 80.9844 9.16267 80.8831 9.312C80.7871 9.46133 80.7391 9.624 80.7391 9.8C80.7391 10.1467 80.8404 10.3947 81.0431 10.544C81.2511 10.6933 81.5204 10.768 81.8511 10.768Z" fill="#4F4F4F"/>
<path d="M90.3301 12.128C89.6208 12.128 89.0741 11.928 88.6901 11.528C88.3061 11.1227 88.1141 10.5653 88.1141 9.856V5.272H87.2821C87.1754 5.272 87.0821 5.23733 87.0021 5.168C86.9274 5.09867 86.8901 4.99467 86.8901 4.856V4.072L88.2101 3.856L88.6261 1.616C88.6474 1.50933 88.6954 1.42667 88.7701 1.368C88.8501 1.30933 88.9488 1.28 89.0661 1.28H90.0901V3.864H92.2501V5.272H90.0901V9.72C90.0901 9.976 90.1541 10.176 90.2821 10.32C90.4101 10.464 90.5808 10.536 90.7941 10.536C90.9168 10.536 91.0181 10.5227 91.0981 10.496C91.1834 10.464 91.2554 10.432 91.3141 10.4C91.3781 10.368 91.4341 10.3387 91.4821 10.312C91.5301 10.28 91.5781 10.264 91.6261 10.264C91.6848 10.264 91.7328 10.28 91.7701 10.312C91.8074 10.3387 91.8474 10.3813 91.8901 10.44L92.4821 11.4C92.1941 11.64 91.8634 11.8213 91.4901 11.944C91.1168 12.0667 90.7301 12.128 90.3301 12.128Z" fill="#4F4F4F"/>
<path d="M98.6936 5.392C98.6403 5.47733 98.5843 5.53867 98.5256 5.576C98.4669 5.608 98.3923 5.624 98.3016 5.624C98.2056 5.624 98.1016 5.59733 97.9896 5.544C97.8829 5.49067 97.7576 5.432 97.6136 5.368C97.4696 5.29867 97.3043 5.23733 97.1176 5.184C96.9363 5.13067 96.7203 5.104 96.4696 5.104C96.0803 5.104 95.7736 5.18667 95.5496 5.352C95.3256 5.51733 95.2136 5.73333 95.2136 6C95.2136 6.176 95.2696 6.32533 95.3816 6.448C95.4989 6.56533 95.6509 6.66933 95.8376 6.76C96.0296 6.85067 96.2456 6.93333 96.4856 7.008C96.7256 7.07733 96.9709 7.15467 97.2216 7.24C97.4723 7.32533 97.7176 7.424 97.9576 7.536C98.1976 7.64267 98.4109 7.78133 98.5976 7.952C98.7896 8.11733 98.9416 8.31733 99.0536 8.552C99.1709 8.78667 99.2296 9.06933 99.2296 9.4C99.2296 9.79467 99.1576 10.16 99.0136 10.496C98.8696 10.8267 98.6589 11.1147 98.3816 11.36C98.1043 11.6 97.7603 11.7893 97.3496 11.928C96.9443 12.0613 96.4776 12.128 95.9496 12.128C95.6669 12.128 95.3896 12.1013 95.1176 12.048C94.8509 12 94.5923 11.9307 94.3416 11.84C94.0963 11.7493 93.8669 11.6427 93.6536 11.52C93.4456 11.3973 93.2616 11.264 93.1016 11.12L93.5576 10.368C93.6163 10.2773 93.6856 10.208 93.7656 10.16C93.8456 10.112 93.9469 10.088 94.0696 10.088C94.1923 10.088 94.3069 10.1227 94.4136 10.192C94.5256 10.2613 94.6536 10.336 94.7976 10.416C94.9416 10.496 95.1096 10.5707 95.3016 10.64C95.4989 10.7093 95.7469 10.744 96.0456 10.744C96.2803 10.744 96.4803 10.7173 96.6456 10.664C96.8163 10.6053 96.9549 10.5307 97.0616 10.44C97.1736 10.3493 97.2536 10.2453 97.3016 10.128C97.3549 10.0053 97.3816 9.88 97.3816 9.752C97.3816 9.56 97.3229 9.40267 97.2056 9.28C97.0936 9.15733 96.9416 9.05067 96.7496 8.96C96.5629 8.86933 96.3469 8.78933 96.1016 8.72C95.8616 8.64533 95.6136 8.56533 95.3576 8.48C95.1069 8.39467 94.8589 8.296 94.6136 8.184C94.3736 8.06667 94.1576 7.92 93.9656 7.744C93.7789 7.568 93.6269 7.352 93.5096 7.096C93.3976 6.84 93.3416 6.53067 93.3416 6.168C93.3416 5.832 93.4083 5.512 93.5416 5.208C93.6749 4.904 93.8696 4.64 94.1256 4.416C94.3869 4.18667 94.7096 4.00533 95.0936 3.872C95.4829 3.73333 95.9309 3.664 96.4376 3.664C97.0029 3.664 97.5176 3.75733 97.9816 3.944C98.4456 4.13067 98.8323 4.376 99.1416 4.68L98.6936 5.392Z" fill="#4F4F4F"/>
<path d="M103.428 10.912C103.428 10.7467 103.457 10.5893 103.516 10.44C103.58 10.2907 103.665 10.1627 103.772 10.056C103.884 9.94933 104.014 9.864 104.164 9.8C104.313 9.736 104.473 9.704 104.644 9.704C104.809 9.704 104.966 9.736 105.116 9.8C105.265 9.864 105.393 9.94933 105.5 10.056C105.606 10.1627 105.692 10.2907 105.756 10.44C105.82 10.5893 105.852 10.7467 105.852 10.912C105.852 11.0827 105.82 11.2427 105.756 11.392C105.692 11.536 105.606 11.6613 105.5 11.768C105.393 11.8747 105.265 11.9573 105.116 12.016C104.966 12.08 104.809 12.112 104.644 12.112C104.473 12.112 104.313 12.08 104.164 12.016C104.014 11.9573 103.884 11.8747 103.772 11.768C103.665 11.6613 103.58 11.536 103.516 11.392C103.457 11.2427 103.428 11.0827 103.428 10.912Z" fill="#4F4F4F"/>
<path d="M107.021 10.912C107.021 10.7467 107.051 10.5893 107.109 10.44C107.173 10.2907 107.259 10.1627 107.365 10.056C107.477 9.94933 107.608 9.864 107.757 9.8C107.907 9.736 108.067 9.704 108.237 9.704C108.403 9.704 108.56 9.736 108.709 9.8C108.859 9.864 108.987 9.94933 109.093 10.056C109.2 10.1627 109.285 10.2907 109.349 10.44C109.413 10.5893 109.445 10.7467 109.445 10.912C109.445 11.0827 109.413 11.2427 109.349 11.392C109.285 11.536 109.2 11.6613 109.093 11.768C108.987 11.8747 108.859 11.9573 108.709 12.016C108.56 12.08 108.403 12.112 108.237 12.112C108.067 12.112 107.907 12.08 107.757 12.016C107.608 11.9573 107.477 11.8747 107.365 11.768C107.259 11.6613 107.173 11.536 107.109 11.392C107.051 11.2427 107.021 11.0827 107.021 10.912Z" fill="#4F4F4F"/>
<path d="M110.615 10.912C110.615 10.7467 110.645 10.5893 110.703 10.44C110.767 10.2907 110.853 10.1627 110.959 10.056C111.071 9.94933 111.202 9.864 111.351 9.8C111.501 9.736 111.661 9.704 111.831 9.704C111.997 9.704 112.154 9.736 112.303 9.8C112.453 9.864 112.581 9.94933 112.687 10.056C112.794 10.1627 112.879 10.2907 112.943 10.44C113.007 10.5893 113.039 10.7467 113.039 10.912C113.039 11.0827 113.007 11.2427 112.943 11.392C112.879 11.536 112.794 11.6613 112.687 11.768C112.581 11.8747 112.453 11.9573 112.303 12.016C112.154 12.08 111.997 12.112 111.831 12.112C111.661 12.112 111.501 12.08 111.351 12.016C111.202 11.9573 111.071 11.8747 110.959 11.768C110.853 11.6613 110.767 11.536 110.703 11.392C110.645 11.2427 110.615 11.0827 110.615 10.912Z" fill="#4F4F4F"/>
</svg>
